<svg xmlns="http://www.w3.org/2000/svg" width="82" height="76"><path d="M27 1c0 1.9 9 17 10.1 17 1.3 0 1.3 0-4.1-9-5.6-9.4-6-9.9-6-8zM5 15.5c0 .2 3.3 2.3 7.3 4.6 3.9 2.4 8.9 5.5 11.1 7.1 4.2 3 6.8 2.8 4-.3-.9-1-2.1-1.9-2.6-1.9-.6 0-3.1-1.4-5.6-3.2l-7.4-5C9.4 15.2 5 14.3 5 15.5zm30.9 12.3l-2.2 1.9 3 5.6 3 5.6-2.1 2c-1.2 1.2-3 2.1-3.9 2.1-.9 0-1.9.4-2.2 1-.4.6.9 1 3.1 1 7.2 0 11.2 2 17.9 9.1A29.5 29.5 0 0 1 62 74.7c0 1 2.2 1.3 8.9 1.3h8.8l.7-5.3c1.8-15-.8-23.7-9.5-32.3-5.4-5.4-6-5.7-12.1-6.3-4-.4-8-1.6-11.2-3.4-5.7-3.2-8.5-3.4-11.7-.9zM1 38.8c0 .7 5.6 2.1 9.5 2.3l5.9 1.3c3 .7 6 1 6.7.6.6-.5-1.8-1.4-5.7-2.3C6.8 38.3 1 37.6 1 38.8z" fill="#f4f3f3"/><path d="M35.9 27.8l-2.2 1.9 3 5.6 3 5.6-2.1 2c-1.2 1.2-3 2.1-3.9 2.1-.9 0-1.8.4-2.1.9-.3.5 1.8 1.1 4.7 1.3 2.8.3 6 .9 7 1.3 1.3.5 1.7.2 1.7-1.3 0-1.2.5-2.4 1-2.7 1.1-.7 7.3-12.5 6.8-12.9l-5.2-2.9c-5.7-3.2-8.5-3.4-11.7-.9zM55 40.1c0 1.4.5 1.9 1.7 1.7 2.6-.5 2.9-3.8.4-3.8-1.5 0-2.1.6-2.1 2.1z" fill="#f78732"/><path d="M55 40.1c0 1.4.5 1.9 1.7 1.7 2.6-.5 2.9-3.8.4-3.8-1.5 0-2.1.6-2.1 2.1z" fill="#494946"/></svg>